<svg xmlns="http://www.w3.org/2000/svg" version="1.1" xmlns:xlink="http://www.w3.org/1999/xlink" xmlns:svgjs="http://svgjs.dev/svgjs" viewBox="0 0 800 800"><defs><linearGradient x1="50%" y1="0%" x2="50%" y2="100%" id="ccchaos-grad"><stop stop-color="#d1ac00" stop-opacity="1" offset="0%"></stop><stop stop-color="hsl(331, 90%, 56%)" stop-opacity="1" offset="100%"></stop></linearGradient></defs><g stroke-width="2" stroke="url(#ccchaos-grad)" fill="none" stroke-linecap="round"><path d="M404.72 121.76C414.7 124.45 424.9 127 435.3 129.3 445.73 130.81 456.37 131.99 467.18 132.88 478.01 133.05 489.01 133.09 500.09 133.14 511.13 132.82 522.19 132.8 533.13 133.21 543.89 133.72 554.37 134.92 564.39 136.9 573.99 139.31 582.89 142.64 590.9 146.88 598.19 151.69 604.36 157.41 609.24 163.96 613.26 171.02 615.92 178.8 617.24 187.18 617.9 195.91 617.48 205.09 616.21 214.62 615 224.3 613.6 234.2 612.41 244.25 612.36 254.29 613.31 264.41 615.64 274.55 619.98 284.61 626.1 294.67 634.03 304.72 643.88 314.67 655.08 324.62 667.15 334.58 679.71 344.46 691.85 354.37 702.75 364.33 712.01 374.25 718.67 384.25 722.15 394.32 722.65 404.38 719.61 414.54 713.21 424.78 704.54 435.02 693.93 445.09 682.32 454.97 670.92 464.82 660.22 474.44 650.92 483.77 643.83 493.04 638.93 501.94 636.26 510.42 636.13 518.75 637.79 526.57 640.77 533.8 645.11 540.81 649.67 547.16 653.86 552.79 659.12 560.48 659.97 571.91 654.59 575.88 648.87 578.38 641.42 580.52 632.5 582.45 622.55 584.83 611.61 587.34 599.98 590.18 587.93 593.93 575.63 598.35 563.3 603.59 551.02 610.04 538.94 617.45 527.17 625.8 515.66 635.24 504.51 645.4 493.72 656.02 483.21 667.04 472.99 677.89 463.04 688.15 453.28 697.71 443.68 705.88 434.21 712.23 424.82 716.87 415.48 719.16 406.15 718.95 396.85 716.75 387.52 712.16 378.16 705.43 368.8 697.52 359.63 688.51 350.68 678.98 341.74 669.79 333.03 661.04 324.6 653.14 316.2 646.72 308.11 641.62 300.37 637.9 292.69 635.94 285.38 635.21 278.47 635.48 271.59 637 265.11 638.95 259.02 641.02 250 644.41 233.23 647.11 225.19 645.27 219.56 642.81 213.95 639.01 208.31 633.94 202.24 628.02 196.07 620.95 189.8 612.9 183.09 604.21 176.33 594.76 169.56 584.74 162.54 574.34 155.68 563.58 149.11 552.6 142.61 541.48 136.63 530.28 131.3 519.11 126.37 507.92 122.27 496.83 119.1 485.88 116.47 474.98 114.77 464.23 114.01 453.67 113.64 443.16 114.02 432.81 115.05 422.66 116.09 412.53 117.48 402.57 119.12 392.81 120.32 383.04 121.52 373.68 122.65 364.73 123.2 355.76 123.73 347.19 124.27 339.02 124.44 330.83 124.84 323.02 125.59 315.59 126.35 308.12 127.71 301 129.76 294.23 132.18 287.35 135.44 280.76 139.57 274.42 144.21 267.9 149.71 261.54 155.99 255.31 162.69 248.79 170.04 242.29 177.91 235.77 185.97 228.86 194.36 221.85 202.99 214.71 211.54 207.15 220.18 199.46 228.83 191.66 237.24 183.53 245.62 175.38 253.95 167.3 261.96 159.14 269.96 151.25 277.94 143.79 285.66 136.57 293.43 130.03 301.31 124.32 308.98 119.19 316.84 115.09 324.91 112.1 332.84 109.85 341.06 108.74 349.58 108.77 358.03 109.37 366.84 110.9 376.02 113.24 385.16 115.7 394.72 118.6 404.7 121.76" stroke-dasharray="5 11" transform="rotate(0, 400, 400)" opacity="0.89"></path><path d="M411.46 132.99C421.22 135.66 431.14 138.21 441.2 140.53 451.28 142.1 461.5 143.37 471.81 144.36 482.12 144.65 492.48 144.79 502.81 144.91 513.06 144.64 523.18 144.6 533.05 144.91 542.69 145.23 551.91 146.17 560.57 147.79 568.77 149.76 576.2 152.56 582.7 156.21 588.54 160.36 593.31 165.39 596.89 171.22 599.8 177.54 601.55 184.59 602.21 192.27 602.49 200.32 602.01 208.88 601 217.83 600.32 227 599.73 236.45 599.57 246.1 600.66 255.81 602.83 265.65 606.36 275.55 611.75 285.44 618.73 295.35 627.26 305.25 637.37 315.11 648.52 324.97 660.24 334.8 672.17 344.6 683.5 354.39 693.5 364.18 701.89 373.95 707.79 383.74 710.72 393.54 710.92 403.34 707.9 413.16 701.79 422.97 693.61 432.79 683.62 442.37 672.64 451.68 661.77 460.97 651.39 469.96 642.16 478.58 634.85 487.15 629.44 495.31 626.03 503 624.96 510.56 625.6 517.6 627.59 524.05 631.02 530.32 634.89 535.98 638.68 540.97 645.56 553.19 636.83 566.53 626.71 570.26 618.42 573.26 609.01 576.5 598.75 580.15 587.93 584.7 576.63 589.92 565.1 595.91 553.43 602.99 541.78 610.89 530.27 619.58 518.88 629.16 507.73 639.25 496.88 649.61 486.21 660.18 475.83 670.45 465.71 680.01 455.76 688.81 446.01 696.22 436.46 701.88 426.99 705.93 417.65 707.79 408.42 707.33 399.22 705.08 390.08 700.63 381.02 694.21 371.96 686.7 363.17 678.16 354.66 669.08 346.16 660.27 337.94 651.77 330.05 643.97 322.16 637.47 314.61 632.1 307.41 627.96 300.22 625.43 293.39 624.04 286.93 623.62 280.45 624.42 274.31 625.74 268.49 627.3 259.75 630.22 243.08 633.29 234.85 632.31 229.05 630.67 223.22 627.84 217.34 623.85 211.03 619.12 204.63 613.28 198.14 606.47 191.28 599.04 184.4 590.81 177.56 581.92 170.57 572.63 163.79 562.88 157.35 552.81 151.06 542.53 145.32 532.07 140.27 521.54 135.64 510.95 131.86 500.37 128.98 489.86 126.64 479.36 125.21 468.97 124.67 458.74 124.51 448.53 125.06 438.47 126.22 428.6 127.37 418.75 128.85 409.07 130.54 399.58 131.81 390.09 133.04 381.01 134.2 372.33 134.77 363.63 135.3 355.32 135.81 347.38 135.92 339.42 136.22 331.8 136.81 324.54 137.36 317.21 138.46 310.18 140.18 303.44 142.21 296.58 145.05 289.95 148.69 283.5 152.83 276.85 157.81 270.32 163.57 263.85 169.78 257.09 176.67 250.32 184.12 243.51 191.84 236.33 199.96 229.05 208.37 221.66 216.81 213.92 225.41 206.08 234.08 198.19 242.6 190.06 251.13 181.98 259.63 174.05 267.89 166.11 276.12 158.52 284.33 151.4 292.31 144.6 300.31 138.5 308.37 133.24 316.23 128.56 324.22 124.88 332.38 122.29 340.39 120.38 348.64 119.55 357.13 119.79 365.55 120.54 374.27 122.16 383.31 124.53 392.33 126.99 401.7 129.86 411.45 132.98" stroke-dasharray="1 10" transform="rotate(4.04, 400, 400)" opacity="0.46"></path><path d="M417.02 144.21C426.51 146.86 436.08 149.4 445.73 151.73 455.37 153.37 465.06 154.72 474.76 155.81 484.42 156.22 494.02 156.48 503.47 156.69 512.81 156.48 521.9 156.45 530.63 156.69 539.1 156.9 547.05 157.61 554.36 158.93 561.24 160.51 567.32 162.84 572.48 165.94 578.91 171.65 586.03 187.68 586.97 197.78 587.2 205.1 586.94 212.96 586.45 221.27 586.49 229.82 586.83 238.71 587.77 247.85 589.99 257.11 593.31 266.54 597.92 276.08 604.19 285.66 611.86 295.29 620.8 304.94 631.02 314.58 641.98 324.23 653.23 333.85 664.48 343.45 674.98 353.04 684.1 362.59 691.63 372.14 696.81 381.66 699.24 391.14 699.18 400.62 696.18 410.07 690.36 419.44 682.67 428.82 673.28 437.9 662.93 446.66 652.58 455.39 642.57 463.77 633.48 471.75 626.02 479.67 620.2 487.16 616.15 494.16 614.22 501.07 613.9 507.45 614.92 513.27 618.95 521.54 628.76 535.09 632.19 540.48 633.44 545.5 626.96 554.46 619.19 559.05 612.54 562.72 604.71 566.7 595.92 571.13 586.49 576.42 576.42 582.34 565.93 588.96 555.16 596.53 544.23 604.79 533.28 613.67 522.31 623.24 511.46 633.15 500.8 643.16 490.25 653.22 479.91 662.84 469.82 671.69 459.85 679.73 450.09 686.41 440.55 691.41 431.09 694.91 421.8 696.38 412.69 695.7 403.6 693.4 394.65 689.1 385.85 682.98 377.04 675.88 368.57 667.79 360.43 659.17 352.29 650.73 344.47 642.51 336.99 634.85 329.5 628.31 322.35 622.74 315.55 618.25 308.72 615.21 302.22 613.21 296.05 612.13 289.81 612.25 283.85 612.92 278.16 613.92 269.49 616.23 252.55 619.22 244.03 618.82 238 617.82 231.93 615.78 225.78 612.7 219.25 609.01 212.64 604.29 205.97 598.63 199.01 592.4 192.07 585.35 185.24 577.61 178.33 569.46 171.69 560.78 165.45 551.68 159.42 542.35 153.98 532.75 149.24 522.99 144.95 513.11 141.49 503.17 138.93 493.23 136.89 483.26 135.73 473.34 135.42 463.52 135.45 453.72 136.15 444.02 137.42 434.49 138.67 424.96 140.22 415.58 141.97 406.38 143.28 397.18 144.56 388.36 145.74 379.92 146.35 371.45 146.88 363.35 147.37 355.59 147.45 347.78 147.67 340.29 148.14 333.11 148.52 325.84 149.37 318.83 150.79 312.06 152.46 305.14 154.88 298.4 158.05 291.79 161.68 284.98 166.12 278.23 171.32 271.52 176.99 264.52 183.35 257.5 190.31 250.41 197.59 243.01 205.33 235.53 213.42 227.96 221.63 220.11 230.06 212.21 238.64 204.32 247.14 196.27 255.71 188.34 264.29 180.64 272.7 173 281.1 165.77 289.49 159.05 297.68 152.7 305.88 147.06 314.11 142.26 322.17 138.05 330.32 134.8 338.57 132.58 346.7 131 354.99 130.44 363.48 130.87 371.89 131.76 380.55 133.46 389.46 135.85 398.35 138.3 407.53 141.13 417.01 144.21" stroke-dasharray="9 6" transform="rotate(8.08, 400, 400)" opacity="0.22"></path><path d="M420.82 155.43C429.98 158.05 439.15 160.58 448.3 162.92 457.44 164.61 466.53 166.05 475.51 167.23 484.45 167.77 493.21 168.15 501.73 168.46 510.11 168.34 518.15 168.34 525.73 168.57 533.06 168.69 539.82 169.24 545.89 170.3 554.06 172.51 565.63 180.9 568.95 187.2 570.6 192.06 571.54 197.62 571.89 203.82 572.35 210.39 572.57 217.51 572.78 225.1 573.67 232.96 575.01 241.2 577.06 249.73 580.36 258.43 584.71 267.35 590.25 276.41 597.25 285.55 605.41 294.78 614.6 304.06 624.77 313.37 635.41 322.69 646.11 332 656.63 341.31 666.28 350.6 674.53 359.83 681.25 369.07 685.76 378.26 687.72 387.38 687.43 396.49 684.46 405.53 678.94 414.45 671.71 423.37 662.91 431.96 653.17 440.18 643.36 448.38 633.74 456.2 624.84 463.6 617.32 470.96 611.18 477.87 606.59 484.31 603.3 493.61 605.44 509.59 609.15 516.28 616.33 527.84 615.66 543.41 609.99 548.95 604.86 553.28 598.57 557.96 591.27 563.11 583.3 569.04 574.58 575.55 565.3 582.67 555.65 590.59 545.68 599.07 535.53 608 525.27 617.45 514.98 627.07 504.77 636.63 494.57 646.11 484.52 655.07 474.65 663.18 464.85 670.49 455.24 676.45 445.84 680.82 436.5 683.81 427.35 684.91 418.39 684.05 409.47 681.73 400.72 677.58 392.15 671.76 383.58 665.04 375.37 657.4 367.53 649.23 359.67 641.18 352.15 633.26 344.98 625.77 337.78 619.24 330.91 613.53 324.36 608.75 317.75 605.26 311.44 602.72 305.41 601.04 299.27 600.49 293.37 600.52 287.66 600.93 281.77 601.99 276.01 603.04 270.34 603.89 264.41 604.84 258.49 605.24 252.55 604.97 246.29 604.4 239.96 602.97 233.57 600.63 226.85 597.81 220.08 594.06 213.3 589.42 206.29 584.29 199.37 578.36 192.62 571.72 185.87 564.69 179.44 557.08 173.46 549.01 167.74 540.68 162.63 532 158.24 523.08 154.32 514.02 151.21 504.81 148.98 495.53 147.24 486.19 146.33 476.84 146.24 467.52 146.45 458.2 147.29 448.94 148.67 439.79 150 430.64 151.61 421.61 153.39 412.71 154.75 403.81 156.06 395.24 157.27 387.01 157.92 378.77 158.47 370.83 158.97 363.2 159.03 355.51 159.21 348.1 159.57 340.94 159.81 333.69 160.46 326.65 161.61 319.79 162.95 312.78 164.96 305.9 167.67 299.11 170.79 292.12 174.69 285.17 179.32 278.22 184.41 271.02 190.19 263.77 196.59 256.48 203.35 248.92 210.61 241.3 218.28 233.64 226.14 225.77 234.28 217.9 242.62 210.1 250.99 202.23 259.46 194.54 268 187.13 276.45 179.86 284.91 173.04 293.38 166.78 301.71 160.9 310.04 155.75 318.39 151.42 326.6 147.67 334.86 144.84 343.18 142.99 351.41 141.73 359.74 141.41 368.2 142.02 376.61 143.04 385.18 144.79 393.94 147.19 402.68 149.62 411.64 152.41 420.8 155.43" stroke-dasharray="1 9" transform="rotate(12.12, 400, 400)" opacity="0.84"></path><path d="M422.45 166.66C431.25 169.24 439.96 171.75 448.56 174.09 457.14 175.83 465.57 177.34 473.81 178.62 481.98 179.28 489.9 179.79 497.48 180.21 504.92 180.2 511.94 180.26 518.46 180.5 527.6 180.8 542.2 183.64 547.46 186.59 551.56 190.62 556.24 202.6 557.37 210.47 558.28 216.27 559.15 222.63 560.2 229.48 562 236.6 564.36 244.13 567.46 251.98 571.74 260.03 576.99 268.33 583.3 276.81 590.84 285.41 599.32 294.13 608.57 302.93 618.55 311.79 628.77 320.69 638.84 329.58 648.59 338.5 657.4 347.41 664.8 356.25 670.75 365.11 674.62 373.91 676.16 382.6 675.67 391.31 672.75 399.91 667.51 408.37 660.74 416.83 652.51 424.93 643.37 432.66 634.1 440.37 624.9 447.69 616.24 454.59 608.73 461.46 602.37 467.9 597.33 473.89 592.98 482.59 592.49 497.73 595.03 504.24 598.71 510.48 604.2 521.85 604.68 527.4 603.12 533.54 593.01 547.63 584.69 556.06 578.17 562.52 570.84 569.49 562.86 576.97 554.46 585.09 545.61 593.64 536.45 602.49 527.1 611.7 517.59 620.93 508.04 629.98 498.44 638.84 488.88 647.1 479.43 654.49 469.99 661.06 460.69 666.35 451.57 670.12 442.48 672.63 433.56 673.41 424.83 672.38 416.13 670.05 407.6 666.06 399.26 660.53 390.92 654.2 382.95 647 375.33 639.27 367.7 631.61 360.41 624.01 353.44 616.73 346.43 610.25 339.72 604.46 333.31 599.45 326.81 595.59 320.57 592.58 314.56 590.34 308.41 589.16 302.45 588.56 296.63 588.38 290.61 588.89 284.67 589.48 278.78 590 272.63 590.74 266.47 591.09 260.28 590.93 253.79 590.63 247.25 589.61 240.66 587.84 233.82 585.7 226.95 582.74 220.13 578.99 213.17 574.82 206.34 569.89 199.75 564.28 193.22 558.3 187.08 551.73 181.41 544.66 176.05 537.33 171.33 529.6 167.32 521.56 163.78 513.37 161.03 504.95 159.13 496.39 157.69 487.76 157.03 479.04 157.14 470.29 157.52 461.52 158.49 452.76 159.95 444.04 161.35 435.32 163 426.65 164.82 418.07 166.22 409.49 167.56 401.19 168.79 393.17 169.48 385.13 170.07 377.35 170.58 369.81 170.66 362.23 170.81 354.87 171.1 347.7 171.23 340.45 171.71 333.35 172.62 326.38 173.66 319.28 175.3 312.27 177.59 305.3 180.22 298.16 183.57 291.03 187.63 283.89 192.12 276.53 197.29 269.14 203.08 261.72 209.25 254.09 215.95 246.42 223.1 238.77 230.49 230.97 238.22 223.23 246.21 215.62 254.29 208.01 262.54 200.63 270.9 193.59 279.24 186.75 287.64 180.39 296.06 174.61 304.41 169.23 312.77 164.58 321.14 160.74 329.42 157.43 337.72 155.01 346.05 153.51 354.31 152.55 362.64 152.47 371.03 153.24 379.38 154.36 387.84 156.16 396.4 158.55 404.95 160.95 413.64 163.7 422.44 166.66" stroke-dasharray="3 1" transform="rotate(16.16, 400, 400)" opacity="0.39"></path><path d="M421.75 177.88C430.14 180.42 438.35 182.9 446.37 185.24 454.36 187.02 462.13 188.6 469.61 189.97 477.04 190.75 484.13 191.39 490.83 191.93 500.46 192.12 516.93 192.74 523.54 193.65 533.21 197.93 541.97 210.98 543.73 217.8 545.25 222.86 546.89 228.46 548.84 234.55 551.57 240.9 554.9 247.68 558.95 254.81 564.08 262.14 570.08 269.75 576.96 277.58 584.86 285.55 593.48 293.68 602.65 301.91 612.3 310.23 622 318.61 631.4 327 640.35 335.44 648.32 343.88 654.9 352.26 660.12 360.67 663.41 369.02 664.56 377.27 663.9 385.52 661.04 393.67 656.09 401.66 649.76 409.65 642.09 417.29 633.53 424.57 624.81 431.83 616.05 438.71 607.67 445.2 600.24 451.66 593.74 457.73 588.36 463.4 583.1 471.69 580.14 486.39 581.46 492.94 584.2 499.37 589.13 511.69 590.09 517.96 589.56 524.9 582.61 540.7 576.21 549.91 571.05 556.77 565.06 564.06 558.38 571.75 551.27 579.94 543.62 588.42 535.56 597.07 527.26 605.93 518.7 614.7 509.98 623.17 501.15 631.37 492.26 638.92 483.39 645.59 474.5 651.46 465.66 656.09 456.94 659.32 448.23 661.38 439.65 661.86 431.22 660.7 422.81 658.38 414.54 654.54 406.44 649.31 398.35 643.35 390.59 636.58 383.17 629.29 375.73 622.03 368.59 614.76 361.75 607.71 354.86 601.33 348.24 595.51 341.86 590.35 335.4 586.18 329.13 582.75 323.05 580.03 316.83 578.28 310.74 577.08 304.74 576.32 298.55 576.24 292.41 576.34 286.29 576.45 279.92 576.88 273.54 577.06 267.12 576.87 260.46 576.66 253.77 575.89 247.06 574.49 240.16 572.87 233.29 570.53 226.52 567.49 219.68 564.13 213.04 560.07 206.69 555.35 200.46 550.33 194.66 544.72 189.37 538.59 184.41 532.23 180.1 525.42 176.5 518.26 173.35 510.95 170.97 503.36 169.39 495.55 168.24 487.66 167.84 479.62 168.13 471.48 168.67 463.31 169.74 455.08 171.27 446.83 172.73 438.58 174.41 430.32 176.24 422.08 177.67 413.85 179.04 405.82 180.31 398.01 181.04 390.19 181.67 382.56 182.21 375.12 182.32 367.64 182.47 360.32 182.72 353.15 182.77 345.9 183.12 338.75 183.83 331.69 184.61 324.52 185.92 317.39 187.81 310.3 189.98 303.05 192.82 295.8 196.31 288.54 200.19 281.11 204.74 273.66 209.9 266.19 215.42 258.58 221.5 250.98 228.05 243.42 234.87 235.8 242.08 228.29 249.6 220.95 257.26 213.68 265.15 206.7 273.19 200.1 281.28 193.73 289.47 187.86 297.72 182.6 305.95 177.74 314.21 173.58 322.48 170.22 330.71 167.36 338.95 165.33 347.19 164.17 355.4 163.48 363.63 163.61 371.88 164.52 380.11 165.73 388.38 167.56 396.69 169.93 405 172.31 413.35 174.99 421.74 177.88" stroke-dasharray="8 4" transform="rotate(20.200000000000003, 400, 400)" opacity="0.63"></path><path d="M418.79 189.11C426.73 191.6 434.42 194.04 441.85 196.37 449.26 198.18 456.37 199.82 463.15 201.27 469.87 202.18 476.22 202.95 482.14 203.61 490.64 203.99 504.96 204.75 510.68 205.56 519.39 209.08 528.63 220 531.27 225.84 533.5 230.2 535.96 235.07 538.8 240.41 542.41 246 546.61 252.02 551.49 258.4 557.31 264.98 563.87 271.86 571.15 278.99 579.22 286.27 587.82 293.73 596.76 301.34 605.98 309.03 615.08 316.82 623.74 324.65 631.9 332.54 639.04 340.44 644.84 348.31 649.37 356.22 652.12 364.07 652.93 371.84 652.12 379.61 649.34 387.29 644.67 394.82 638.77 402.36 631.63 409.56 623.65 416.43 615.47 423.28 607.17 429.79 599.12 435.95 591.82 442.09 585.28 447.89 579.65 453.34 573.64 461.37 568.42 475.98 568.53 482.71 570.22 489.46 574.1 502.87 575.19 509.86 575.51 514.91 575.07 520.17 573.79 525.67 572.06 531.64 569.45 537.94 565.97 544.57 562.01 551.7 557.25 559.16 551.79 566.91 545.93 575.03 539.48 583.32 532.56 591.66 525.38 600.08 517.84 608.31 510.06 616.16 502.13 623.69 494.04 630.52 485.88 636.48 477.66 641.67 469.42 645.69 461.22 648.4 453 650.06 444.85 650.27 436.79 649 428.74 646.7 420.79 643.02 412.96 638.08 405.13 632.49 397.6 626.14 390.35 619.29 383.07 612.43 376.06 605.5 369.3 598.71 362.49 592.47 355.9 586.67 349.5 581.42 343.02 577.02 336.69 573.25 330.49 570.1 324.16 567.84 317.91 566.09 311.73 564.77 305.37 564.12 299.03 563.7 292.7 563.36 286.17 563.4 279.61 563.31 273.04 562.97 266.28 562.71 259.52 562.02 252.78 560.85 245.93 559.54 239.16 557.65 232.53 555.16 225.91 552.43 219.55 549.08 213.51 545.13 207.65 540.93 202.25 536.17 197.38 530.89 192.87 525.41 188.98 519.48 185.8 513.16 183.06 506.7 181.05 499.91 179.79 492.85 178.92 485.72 178.74 478.37 179.21 470.86 179.88 463.32 181.05 455.65 182.63 447.9 184.12 440.14 185.83 432.31 187.67 424.43 189.12 416.56 190.51 408.83 191.8 401.25 192.59 393.66 193.27 386.2 193.85 378.87 194 371.52 194.17 364.26 194.41 357.1 194.42 349.88 194.66 342.73 195.21 335.62 195.79 328.42 196.81 321.25 198.34 314.09 200.1 306.8 202.45 299.52 205.41 292.22 208.7 284.81 212.62 277.39 217.13 269.99 221.99 262.51 227.4 255.07 233.3 247.72 239.48 240.36 246.08 233.17 253.02 226.2 260.15 219.35 267.55 212.82 275.14 206.7 282.84 200.85 290.68 195.51 298.61 190.77 306.57 186.44 314.58 182.79 322.63 179.88 330.66 177.45 338.72 175.8 346.77 174.95 354.8 174.52 362.84 174.83 370.86 175.86 378.88 177.15 386.89 179 394.88 181.34 402.87 183.67 410.85 186.29 418.78 189.1" stroke-dasharray="5 4" transform="rotate(24.24, 400, 400)" opacity="0.66"></path><path d="M413.89 200.33C421.34 202.76 428.51 205.17 435.37 207.48 442.21 209.32 448.72 211.01 454.86 212.53 463.81 214 479.54 215.82 486.22 216.44 497.24 217.68 509.74 222.51 512.99 225.7 516.54 229.66 524.79 240.41 530.1 247.14 534.49 252 539.44 257.27 544.99 262.91 551.32 268.73 558.26 274.88 565.75 281.29 573.83 287.83 582.25 294.6 590.83 301.53 599.52 308.55 607.96 315.7 615.87 322.93 623.22 330.21 629.56 337.53 634.62 344.85 638.51 352.21 640.77 359.54 641.26 366.81 640.33 374.09 637.64 381.29 633.24 388.38 627.76 395.46 621.14 402.26 613.73 408.76 606.09 415.25 598.26 421.45 590.57 427.34 583.47 433.23 576.95 438.84 571.18 444.16 564.57 452.06 557.35 466.81 556.29 473.83 556.88 480.96 559.33 495.47 560.23 503.11 560.67 508.59 560.52 514.27 559.72 520.18 558.63 526.49 556.79 533.08 554.2 539.94 551.23 547.19 547.53 554.68 543.16 562.35 538.44 570.28 533.13 578.26 527.3 586.19 521.22 594.1 514.73 601.73 507.92 608.93 500.94 615.76 493.73 621.89 486.36 627.15 478.91 631.69 471.35 635.14 463.75 637.37 456.12 638.66 448.48 638.64 440.86 637.28 433.25 635.02 425.66 631.51 418.14 626.86 410.61 621.63 403.31 615.68 396.23 609.26 389.14 602.8 382.25 596.23 375.55 589.72 368.81 583.67 362.23 577.94 355.8 572.65 349.28 568.09 342.88 564.05 336.57 560.55 330.14 557.83 323.76 555.59 317.42 553.75 310.93 552.56 304.45 551.61 297.97 550.8 291.34 550.4 284.7 549.96 278.07 549.37 271.31 548.94 264.58 548.21 257.92 547.1 251.22 545.96 244.64 544.35 238.26 542.23 231.96 539.96 225.94 537.16 220.29 533.82 214.87 530.3 209.92 526.25 205.51 521.72 201.46 517.02 198.03 511.87 195.27 506.31 192.93 500.64 191.27 494.61 190.32 488.27 189.72 481.86 189.75 475.2 190.38 468.32 191.17 461.4 192.41 454.3 194.03 447.06 195.54 439.81 197.26 432.43 199.09 424.95 200.56 417.46 201.97 410.05 203.29 402.73 204.13 395.4 204.86 388.14 205.49 380.96 205.7 373.76 205.91 366.61 206.16 359.52 206.16 352.38 206.34 345.26 206.78 338.18 207.18 331.02 207.97 323.87 209.2 316.73 210.58 309.5 212.5 302.27 214.96 295.05 217.7 287.76 221.01 280.48 224.89 273.25 229.08 265.99 233.8 258.82 239.01 251.78 244.51 244.78 250.43 237.99 256.72 231.46 263.22 225.09 270.02 219.07 277.06 213.48 284.23 208.17 291.58 203.38 299.06 199.18 306.61 195.36 314.25 192.2 321.93 189.75 329.64 187.73 337.38 186.43 345.11 185.86 352.85 185.66 360.59 186.15 368.28 187.27 375.99 188.61 383.66 190.47 391.26 192.78 398.88 195.05 406.42 197.59 413.88 200.33" stroke-dasharray="9 5" transform="rotate(28.28, 400, 400)" opacity="0.97"></path><path d="M407.54 211.56C414.5 213.92 421.15 216.28 427.48 218.56 436.78 221.28 453.54 225.38 460.93 226.81 473.78 228.23 489.31 230.56 493.43 232.04 497.57 233.92 505.93 239.91 510.62 244.1 514.3 247.22 518.31 250.79 522.72 254.78 527.76 258.95 533.29 263.52 539.33 268.45 545.99 273.54 553.12 278.95 560.64 284.64 568.57 290.46 576.68 296.52 584.79 302.76 592.87 309.1 600.61 315.58 607.75 322.17 614.3 328.82 619.87 335.54 624.24 342.29 627.53 349.08 629.34 355.87 629.56 362.63 628.54 369.41 625.94 376.14 621.82 382.8 616.73 389.46 610.62 395.88 603.76 402.05 596.65 408.22 589.31 414.15 582.01 419.84 575.16 425.53 568.75 431.01 562.91 436.26 557.97 441.56 553.76 446.68 550.31 451.64 546.93 459.15 544.28 474.01 544.3 481.56 545.04 489.51 545.81 506.5 545.22 515.68 544.5 522.2 543.19 528.94 541.25 535.88 539.04 543.1 536.19 550.48 532.73 557.95 528.98 565.56 524.67 573.14 519.84 580.57 514.78 587.91 509.29 594.92 503.42 601.44 497.39 607.57 491.07 613.01 484.51 617.61 477.87 621.54 471.04 624.45 464.09 626.25 457.11 627.21 450.04 626.98 442.91 625.56 435.78 623.34 428.61 620 421.43 615.63 414.24 610.75 407.21 605.21 400.33 599.21 393.44 593.15 386.69 586.94 380.07 580.74 373.42 574.9 366.87 569.29 360.43 564.02 353.91 559.36 347.47 555.13 341.08 551.36 334.6 548.26 328.14 545.59 321.71 543.28 315.17 541.58 308.63 540.13 302.1 538.85 295.47 537.99 288.86 537.15 282.27 536.25 275.63 535.56 269.05 534.67 262.59 533.5 256.14 532.38 249.86 530.89 243.82 528.99 235.12 525.82 219.96 516.98 213.8 511.32 208.75 505.03 202.32 490.26 201.01 481.92 200.65 476.19 200.87 470.17 201.63 463.89 202.52 457.58 203.82 451.05 205.46 444.32 206.99 437.58 208.7 430.66 210.51 423.58 211.99 416.51 213.42 409.44 214.75 402.41 215.64 395.37 216.43 388.36 217.12 381.37 217.4 374.37 217.66 367.39 217.94 360.42 217.96 353.43 218.12 346.43 218.48 339.45 218.76 332.42 219.37 325.38 220.34 318.36 221.41 311.28 222.95 304.21 224.96 297.17 227.2 290.1 229.95 283.08 233.22 276.13 236.76 269.2 240.81 262.38 245.33 255.74 250.11 249.19 255.33 242.87 260.91 236.84 266.72 231 272.85 225.53 279.24 220.49 285.78 215.74 292.54 211.51 299.46 207.84 306.47 204.54 313.6 201.85 320.8 199.83 328.06 198.19 335.35 197.21 342.66 196.9 349.99 196.91 357.32 197.54 364.6 198.75 371.9 200.13 379.15 201.98 386.31 204.23 393.49 206.44 400.57 208.91 407.53 211.55" stroke-dasharray="3 4" transform="rotate(32.32, 400, 400)" opacity="0.30"></path><path d="M400.41 222.78C406.87 225.08 413.03 227.38 418.88 229.62 427.47 232.37 442.95 236.69 449.82 238.29 462.02 240.11 477.61 242.67 482.16 244.02 486.91 245.64 496.95 250.71 502.62 254.26 506.93 256.88 511.57 259.91 516.57 263.32 522.1 266.87 528.04 270.8 534.37 275.07 541.19 279.47 548.33 284.2 555.71 289.2 563.34 294.32 571.02 299.68 578.57 305.25 586 310.9 593 316.73 599.37 322.68 605.15 328.69 609.99 334.81 613.7 340.99 616.44 347.2 617.85 353.45 617.84 359.72 616.74 365.99 614.24 372.27 610.39 378.51 605.7 384.76 600.07 390.83 593.74 396.71 587.17 402.59 580.32 408.29 573.44 413.81 566.89 419.35 560.63 424.72 554.82 429.95 549.74 435.23 545.25 440.39 541.39 445.45 537.16 453.16 532.48 468.65 531.52 476.6 531.44 482.12 531.39 487.76 531.27 493.52 531.34 499.53 531.15 505.7 530.61 512.04 530.05 518.62 529.02 525.37 527.5 532.24 525.82 539.31 523.59 546.45 520.82 553.6 517.86 560.8 514.36 567.88 510.38 574.76 506.22 581.48 501.61 587.83 496.61 593.67 491.47 599.11 485.99 603.88 480.22 607.85 474.38 611.2 468.29 613.62 462.01 615.02 455.7 615.69 449.22 615.29 442.62 613.82 436.01 611.66 429.29 608.5 422.49 604.41 415.69 599.87 408.97 594.72 402.33 589.13 395.68 583.48 389.11 577.64 382.62 571.76 376.1 566.16 369.64 560.72 363.23 555.52 356.78 550.83 350.36 546.48 343.97 542.5 337.52 539.1 331.08 536.07 324.65 533.36 318.16 531.2 311.67 529.28 305.21 527.55 298.7 526.23 292.22 524.98 285.82 523.72 279.4 522.71 273.09 521.57 266.93 520.25 257.9 518.29 241.36 512.82 234.12 509.15 227.72 504.98 217.98 494.5 214.81 488.23 212.74 481.47 211.91 466.18 212.97 457.75 213.95 452.01 215.28 446.02 216.92 439.79 218.45 433.55 220.15 427.1 221.94 420.45 223.41 413.8 224.84 407.11 226.19 400.4 227.13 393.69 227.97 386.96 228.73 380.23 229.09 373.49 229.42 366.73 229.76 359.97 229.82 353.19 229.99 346.4 230.31 339.61 230.52 332.8 230.99 325.98 231.77 319.17 232.59 312.35 233.8 305.55 235.43 298.79 237.22 292.05 239.47 285.37 242.19 278.8 245.12 272.29 248.53 265.92 252.37 259.76 256.46 253.71 260.95 247.92 265.82 242.44 270.9 237.17 276.31 232.27 282 227.81 287.85 223.63 293.94 219.94 300.2 216.79 306.59 213.98 313.11 211.75 319.73 210.13 326.42 208.84 333.18 208.16 339.96 208.08 346.78 208.28 353.6 209.02 360.39 210.29 367.21 211.69 373.97 213.51 380.65 215.71 387.35 217.85 393.94 220.22 400.4 222.78" stroke-dasharray="8 3" transform="rotate(36.36, 400, 400)" opacity="0.24"></path><path d="M393.24 234C402.07 237.34 418.33 243.41 425.73 245.99 435.39 248.24 443.92 250.22 451.4 252.08 459.06 252.9 466.03 254.16 472.61 256.12 480.01 257.85 487.72 260.78 496.16 265 506.2 269.53 517.47 275.49 529.96 282.77 543.81 290.46 558.18 299.33 572.12 309.13 585.26 319.19 595.99 329.97 603 341.2 605.77 349.71 603.74 367.07 598.97 375.84 594.65 381.7 589.49 387.44 583.68 393.04 577.62 398.66 571.27 404.15 564.83 409.52 552.78 420.33 541.91 430.81 532.92 441.02 526.77 451.59 522.5 462.23 519.63 473.06 518.64 484.58 517.76 496.59 516.29 509.07 515.08 522.25 512.35 535.76 507.9 549.17 502.95 562.51 496.17 574.92 487.76 585.59 478.92 594.7 468.74 600.96 457.52 603.7 451.85 604.11 445.98 603.57 439.92 602.07 433.85 599.98 427.61 597 421.23 593.19 414.84 588.98 408.47 584.21 402.12 579.03 395.77 573.77 389.43 568.31 383.13 562.77 370.48 552.41 357.86 542.65 345.32 533.95 332.65 527.24 319.99 521.65 307.48 516.95 294.94 513.81 282.71 510.82 271.13 507.56 259.97 504.87 249.9 501.24 241.35 496.44 233.84 491.58 228.27 485.3 224.91 477.63 222.73 469.76 222.61 460.57 224.41 450.2 225.44 444.98 226.79 439.48 228.43 433.74 229.94 427.99 231.6 422 233.36 415.78 234.83 409.56 236.26 403.26 237.62 396.92 238.6 390.58 239.49 384.19 240.31 377.77 240.85 364.92 241.4 351.92 242.22 338.91 242.49 325.9 243.78 312.9 246.34 300.14 249.31 287.52 253.97 275.35 260.22 263.97 267.27 253.14 275.83 243.51 285.61 235.48 296.01 228.5 307.33 223.47 319.19 220.65 331.37 218.99 343.85 219.43 356.3 221.89 362.57 223.3 368.81 225.08 374.98 227.2 381.16 229.27 387.25 231.55 393.23 234" stroke-dasharray="6 8" transform="rotate(40.400000000000006, 400, 400)" opacity="0.67"></path><path d="M386.77 245.23C397.8 249.25 407.92 253.26 417.1 257.03 426.29 259.46 434.64 261.68 442.24 263.77 450.11 264.87 457.59 266.3 464.96 268.28 473.14 269.92 481.78 272.53 491.13 276.24 501.79 280.09 513.44 285.2 525.92 291.49 539.27 298.08 552.72 305.8 565.39 314.44 577.06 323.29 586.33 332.91 592.15 343.09 594.97 353.34 593.46 364.02 587.54 374.99 579.12 385.95 568.2 396.68 556.18 407.11 544.77 417.63 534.11 428.03 524.87 438.34 517.97 448.96 512.67 459.76 508.68 470.78 506.49 482.35 504.65 494.31 502.57 506.58 501.03 519.29 498.41 532.1 494.46 544.56 490.28 556.75 484.53 567.86 477.3 577.19 469.75 585.05 460.87 590.26 450.86 592.29 440.72 592.11 429.63 588.63 417.75 581.96 405.88 573.93 393.83 564.23 381.76 553.77 369.67 543.93 357.5 534.42 345.37 525.7 333.2 518.61 321.07 512.44 309.16 507.07 297.37 503.11 286 499.39 275.37 495.59 265.29 492.45 256.33 488.64 248.9 483.94 242.47 479.32 237.85 473.52 235.28 466.52 233.7 459.41 233.96 451.08 235.92 441.61 238.05 432.08 241.13 421.48 244.79 409.92 247.36 398.36 249.76 386.43 251.86 374.31 252.6 362.22 253.31 349.94 254.2 337.66 254.46 325.45 255.54 313.29 257.65 301.45 259.97 289.84 263.74 278.75 268.92 268.53 274.71 258.89 281.92 250.44 290.31 243.56 299.24 237.63 309.13 233.51 319.63 231.41 330.46 230.27 341.67 231.01 352.97 233.55 364.38 236.38 375.73 240.38 386.76 245.23" stroke-dasharray="11 5" transform="rotate(44.44, 400, 400)" opacity="0.82"></path><path d="M381.67 256.45C391.83 260.32 401.33 264.24 410.14 268 418.99 270.58 427.28 273.01 435.1 275.33 443.22 276.72 451.22 278.35 459.29 280.42 468.1 282.06 477.41 284.5 487.34 287.84 498.28 291.19 509.94 295.63 522.07 301.13 534.66 306.79 547 313.51 558.32 321.13 568.53 328.9 576.42 337.47 581.16 346.69 583.29 355.95 581.63 365.76 576.12 376.01 568.46 386.26 558.54 396.47 547.48 406.59 536.77 416.78 526.47 427.01 517.19 437.29 509.78 447.82 503.66 458.58 498.7 469.55 495.4 480.92 492.56 492.58 489.76 504.37 487.64 516.39 484.83 528.3 481.04 539.67 477.25 550.62 472.17 560.42 465.81 568.46 459.25 575.13 451.44 579.38 442.49 580.79 433.45 580.32 423.39 576.93 412.44 570.74 401.49 563.37 390.23 554.45 378.84 544.75 367.46 535.48 355.94 526.32 344.45 517.71 333 510.41 321.63 503.82 310.56 497.91 299.72 493.24 289.38 488.85 279.87 484.5 270.94 480.84 263.16 476.73 256.86 471.97 251.47 467.39 247.77 461.88 245.9 455.35 244.86 448.79 245.45 441.15 247.53 432.47 249.68 423.74 252.68 414 256.21 403.31 258.76 392.63 261.19 381.55 263.37 370.27 264.3 359.02 265.19 347.6 266.21 336.21 266.53 324.93 267.5 313.77 269.3 302.99 271.13 292.49 274.18 282.58 278.45 273.56 283.15 265.12 289.14 257.86 296.23 252.08 303.77 247.15 312.26 243.87 321.43 242.4 330.88 241.72 340.8 242.7 350.95 245.27 361.19 248.03 371.5 251.85 381.67 256.45" stroke-dasharray="1 10" transform="rotate(48.48, 400, 400)" opacity="0.77"></path><path d="M378.47 267.68C387.83 271.38 396.78 275.19 405.29 278.9 413.86 281.6 422.13 284.21 430.18 286.74 438.52 288.41 446.92 290.27 455.51 292.47 464.71 294.2 474.39 296.58 484.56 299.69 495.43 302.71 506.76 306.65 518.23 311.51 529.84 316.45 540.95 322.33 550.87 329.09 559.67 335.92 566.27 343.57 570.03 351.91 571.56 360.27 569.79 369.27 564.69 378.83 557.77 388.39 548.81 398.07 538.72 407.81 528.78 417.6 518.97 427.56 509.82 437.63 502.12 447.9 495.43 458.41 489.7 469.09 485.42 480.02 481.65 491.13 478.08 502.22 475.26 513.35 472.04 524.21 468.15 534.4 464.42 544.08 459.71 552.57 453.92 559.38 448.06 564.95 441.09 568.34 433.05 569.21 424.95 568.49 415.85 565.24 405.84 559.51 395.83 552.79 385.44 544.64 374.87 535.71 364.34 527.04 353.65 518.33 343.01 509.94 332.47 502.58 322.07 495.74 312.03 489.44 302.29 484.2 293.11 479.25 284.81 474.39 277.08 470.21 270.49 465.74 265.29 460.81 260.9 456.15 258.03 450.75 256.8 444.54 256.22 438.37 257.07 431.27 259.21 423.26 261.35 415.23 264.24 406.28 267.64 396.46 270.14 386.64 272.58 376.45 274.82 366.08 275.95 355.76 277.04 345.31 278.2 334.93 278.66 324.69 279.61 314.63 281.23 305.01 282.73 295.68 285.23 286.99 288.77 279.2 292.56 271.95 297.49 265.83 303.44 261.09 309.72 257.06 316.92 254.54 324.84 253.62 332.97 253.32 341.66 254.49 350.68 257.04 359.79 259.71 369.1 263.33 378.47 267.68" stroke-dasharray="10 5" transform="rotate(52.52, 400, 400)" opacity="0.86"></path><path d="M377.5 278.9C386.13 282.42 394.57 286.09 402.8 289.74 411.11 292.52 419.33 295.26 427.5 297.96 435.94 299.89 444.56 301.98 453.41 304.33 462.72 306.22 472.43 308.62 482.48 311.62 492.96 314.44 503.65 318.04 514.23 322.42 524.7 326.8 534.49 332.03 543.02 338.07 550.46 344.13 555.88 350.98 558.76 358.54 559.78 366.11 557.96 374.36 553.27 383.25 547.06 392.13 539.01 401.25 529.89 410.52 520.77 419.84 511.54 429.38 502.71 439.07 494.95 448.9 487.91 458.94 481.64 469.1 476.58 479.38 472.01 489.72 467.7 499.91 464.15 510.02 460.41 519.72 456.27 528.67 452.38 537.08 447.77 544.3 442.33 549.96 436.91 554.52 430.55 557.14 423.26 557.55 415.94 556.65 407.71 553.54 398.63 548.29 389.54 542.19 380.09 534.8 370.45 526.63 360.87 518.62 351.17 510.42 341.55 502.37 332.07 495.1 322.78 488.17 313.91 481.65 305.37 476.01 297.43 470.6 290.37 465.33 283.85 460.67 278.41 455.85 274.26 450.73 270.78 445.9 268.65 440.52 267.97 434.52 267.78 428.6 268.82 421.93 270.98 414.5 273.07 407.07 275.83 398.85 279.06 389.87 281.51 380.9 283.93 371.62 286.22 362.22 287.53 352.87 288.8 343.45 290.13 334.17 290.77 325.03 291.8 316.14 293.33 307.72 294.65 299.6 296.77 292.12 299.76 285.53 302.85 279.42 306.93 274.37 311.91 270.58 317.11 267.38 323.17 265.51 329.96 265.05 336.9 265.08 344.45 266.37 352.44 268.87 360.48 271.42 368.88 274.82 377.5 278.9" stroke-dasharray="1 5" transform="rotate(56.56, 400, 400)" opacity="0.26"></path><path d="M378.87 290.13C386.8 293.44 394.76 296.95 402.68 300.5 410.67 303.31 418.74 306.15 426.89 308.98 435.24 311.14 443.84 313.44 452.65 315.96 461.78 318.02 471.2 320.5 480.79 323.47 490.6 326.21 500.41 329.59 509.89 333.64 519.12 337.62 527.56 342.35 534.74 347.8 540.9 353.24 545.24 359.41 547.37 366.29 547.95 373.15 546.12 380.7 541.84 388.92 536.31 397.13 529.16 405.64 520.98 414.35 512.71 423.09 504.17 432.08 495.79 441.22 488.18 450.44 481.03 459.82 474.45 469.24 468.84 478.69 463.64 488.1 458.73 497.24 454.51 506.22 450.24 514.71 445.76 522.41 441.59 529.57 436.92 535.6 431.66 540.19 426.47 543.84 420.55 545.79 413.88 545.82 407.19 544.78 399.74 541.85 391.56 537.06 383.37 531.58 374.88 524.92 366.26 517.52 357.7 510.19 349.08 502.57 340.59 494.95 332.25 487.92 324.17 481.06 316.55 474.49 309.23 468.6 302.55 462.91 296.72 457.34 291.36 452.31 286.99 447.19 283.79 441.9 281.12 436.88 279.65 431.49 279.41 425.64 279.52 419.9 280.69 413.57 282.81 406.65 284.83 399.75 287.44 392.2 290.49 384.05 292.85 375.89 295.24 367.54 297.56 359.13 299.02 350.77 300.47 342.43 301.97 334.28 302.83 326.26 303.98 318.55 305.53 311.34 307.73 301.24 315.59 285.56 321.52 280.58 328.4 277.45 345.96 277.66 356.3 280.75 363.39 283.16 370.94 286.33 378.87 290.13" stroke-dasharray="10 7" transform="rotate(60.599999999999994, 400, 400)" opacity="0.36"></path><path d="M382.44 301.35C389.71 304.45 397.15 307.77 404.69 311.18 412.28 313.99 420.06 316.87 427.98 319.78 436.04 322.12 444.35 324.6 452.82 327.27 461.48 329.51 470.31 332.1 479.17 335.07 488.07 337.81 496.8 341.07 505.08 344.89 513.02 348.61 520.12 352.95 526.01 357.93 531 362.88 534.38 368.49 535.86 374.74 536.09 380.99 534.28 387.89 530.41 395.43 525.53 402.97 519.23 410.82 511.98 418.87 504.58 426.95 496.8 435.25 489 443.68 481.72 452.13 474.69 460.69 468.04 469.2 462.12 477.68 456.52 486.03 451.19 494.04 446.44 501.83 441.72 509.09 436.92 515.56 432.44 521.52 427.65 526.45 422.46 530.07 417.38 532.92 411.77 534.29 405.61 534.02 399.45 532.9 392.69 530.17 385.36 525.84 378.03 520.94 370.51 515.01 362.93 508.37 355.41 501.73 347.91 494.75 340.6 487.66 333.44 480.98 326.58 474.35 320.21 467.89 314.11 461.95 308.63 456.13 303.96 450.42 297.97 442.5 291.47 426.59 291.1 418.18 291.44 412.58 292.67 406.56 294.72 400.12 296.63 393.69 299.06 386.78 301.91 379.42 304.17 372.06 306.51 364.61 308.82 357.2 310.41 349.82 312.02 342.54 313.68 335.52 314.75 328.61 316.07 322.05 317.69 316 319.89 307.58 326.92 294.89 332.04 291.07 337.88 288.79 353 289.7 362.1 292.67 368.37 294.92 375.16 297.84 382.44 301.35" stroke-dasharray="4 1" transform="rotate(64.64, 400, 400)" opacity="0.84"></path><path d="M387.82 312.58C394.45 315.44 401.33 318.55 408.38 321.79 415.47 324.54 422.79 327.41 430.26 330.34 437.83 332.81 445.59 335.42 453.45 338.19 461.39 340.6 469.39 343.29 477.28 346.29 485.11 349.07 492.65 352.26 499.67 355.91 506.3 359.44 512.12 363.5 516.82 368.1 522.03 375.21 523.32 392.28 518.98 402.28 514.72 409.13 509.24 416.27 502.89 423.58 496.37 430.91 489.4 438.41 482.29 445.99 475.5 453.56 468.78 461.16 462.29 468.66 456.32 476.08 450.56 483.3 445.01 490.13 439.92 496.73 434.9 502.78 429.89 508.08 422.71 514.89 407.44 522.21 399.04 522.16 393.33 521 387.21 518.48 380.69 514.62 374.17 510.29 367.58 505.05 361.04 499.17 354.54 493.25 348.15 486.94 342.01 480.46 335.99 474.24 330.31 467.97 325.13 461.78 320.17 455.96 315.8 450.19 312.17 444.51 307.54 436.48 302.95 420.53 303.04 412.32 303.53 406.89 304.76 401.18 306.69 395.19 308.46 389.22 310.7 382.93 313.34 376.34 315.48 369.74 317.73 363.17 320.01 356.73 321.68 350.31 323.42 344.06 325.22 338.12 327.24 329.53 332.03 314.93 335.19 309.35 343.45 302.66 361.48 301.84 369.53 304.64 375.08 306.7 381.18 309.37 387.82 312.58" stroke-dasharray="7 2" transform="rotate(68.68, 400, 400)" opacity="0.91"></path><path d="M394.47 323.8C406.45 328.71 419.56 334.51 433.15 340.66 446.92 345.32 461.17 350.73 474.83 356.97 487.97 362.39 499.35 369.33 507.18 377.92 512.56 386.27 512.95 396.63 507.56 408.95 499.7 421.26 488.34 434.46 475.59 447.75 463.51 460.93 451.44 473.87 440.08 485.38 430.04 496.03 420.04 504.29 409.91 508.85 400.19 511.49 389.53 509.79 378.02 503.39 366.5 495.58 355.26 485.02 345.08 473.3 335.26 462.19 327.07 450.72 321.36 439.51 316.44 429.27 314.3 418.8 315.2 408.15 316.31 397.83 319.63 386.73 324.76 375.03 328.28 363.33 332.31 352.16 336.54 342.19 339.05 332.5 342.48 324.5 347.11 318.94 351.06 314.05 356.93 311.9 364.81 312.82 372.55 314.06 382.47 317.81 394.47 323.8" stroke-dasharray="3 6" transform="rotate(72.72, 400, 400)" opacity="0.58"></path><path d="M401.69 335.02C412.36 339.48 424.01 344.87 436 350.71 448.02 355.42 460.21 360.86 471.56 366.99 482.29 372.43 491.26 379.1 497.09 387.03 501.03 394.75 500.91 404.08 496.14 414.95 489.51 425.82 479.88 437.27 468.85 448.57 458.08 459.75 446.95 470.45 436.21 479.69 426.33 488.21 416.52 494.56 406.83 497.77 397.48 499.55 387.69 497.78 377.63 492.17 367.56 485.49 358.16 476.4 349.98 466.15 342.03 456.22 335.68 445.73 331.51 435.31 327.82 425.53 326.45 415.57 327.56 405.63 328.66 395.94 331.62 385.84 336.19 375.6 339.48 365.36 343.39 355.92 347.61 347.78 350.47 339.83 354.12 333.49 358.72 329.3 362.66 325.54 368.14 324.09 375.25 325.18 382.19 326.4 391.01 329.73 401.69 335.02" stroke-dasharray="1 1" transform="rotate(76.76, 400, 400)" opacity="0.71"></path><path d="M408.73 346.25C418.03 350.2 428.06 355.09 438.19 360.5 448.28 365.09 458.26 370.37 467.25 376.23 475.68 381.57 482.45 387.87 486.57 395.1 489.32 402.17 488.84 410.44 484.71 419.83 479.24 429.21 471.28 438.85 462 448.15 452.73 457.33 442.88 465.87 433.15 473.02 423.93 479.6 414.71 484.29 405.76 486.4 397.04 487.5 388.22 485.76 379.56 480.94 370.89 475.35 363.14 467.71 356.68 458.98 350.34 450.37 345.5 441.09 342.52 431.75 339.78 422.79 338.93 413.65 340.07 404.64 341.08 395.8 343.64 386.82 347.61 378.01 350.62 369.19 354.32 361.35 358.41 354.82 363.36 345.92 376.33 337.02 385.36 337.66 391.63 338.78 399.43 341.66 408.73 346.25" stroke-dasharray="10 2" transform="rotate(80.80000000000001, 400, 400)" opacity="0.27"></path><path d="M414.87 357.47C422.73 360.88 431 365.18 439.16 370.01 447.24 374.29 455 379.23 461.77 384.64 468.07 389.69 472.93 395.47 475.65 401.9 477.44 408.2 476.75 415.36 473.29 423.22 468.91 431.07 462.53 438.91 454.99 446.26 447.35 453.5 439.03 460.04 430.63 465.33 422.49 470.22 414.29 473.52 406.37 474.77 398.59 475.36 390.9 473.74 383.61 469.72 376.31 465.17 370.05 458.94 365.01 451.75 360.03 444.56 356.37 436.68 354.26 428.65 352.21 420.82 351.67 412.8 352.7 404.94 353.55 397.19 355.68 389.45 359.04 382.06 361.7 374.67 365.08 368.3 368.9 363.15 373.87 356.15 386.43 349.53 394.62 350.24 400.23 351.2 407 353.62 414.87 357.47" stroke-dasharray="3 0" transform="rotate(84.84, 400, 400)" opacity="0.96"></path><path d="M419.46 368.7C432.18 373.98 445.19 382.44 455.02 392.15 463.57 400.97 466.78 412.25 461.86 424.86 454.68 437.46 442.03 449.01 428.37 456.66 415.06 463.27 401.2 464.52 389.36 458.49 377.51 451.14 369.6 438.97 366.52 425.84 363.38 413.03 364.65 399.39 370.46 387.47 374.45 375.54 381.24 367.4 389.48 364.08 396.58 360.83 406.74 362.25 419.46 368.7" stroke-dasharray="6 4" transform="rotate(88.88, 400, 400)" opacity="0.68"></path><path d="M422.04 379.92C431.63 384.09 440.69 390.92 447 398.76 452.58 406.14 454.29 415.18 450.44 424.63 445.34 434.08 436.21 442.12 426.06 447.03 415.94 451.39 405.24 451.87 396.21 447.27 387.18 441.93 381.33 432.97 379.11 423.12 376.69 413.33 377.54 402.84 381.89 393.82 385.17 384.78 390.92 378.81 397.83 376.46 404.1 374.05 412.44 375.08 422.04 379.92" stroke-dasharray="3 10" transform="rotate(92.92, 400, 400)" opacity="0.72"></path><path d="M422.33 391.15C435.13 396.61 443.7 409.98 439.01 422.55 432.17 435.12 415.71 441.88 403.46 436.04 391.2 428.91 387.16 412.79 393.31 400.63 397.53 388.45 409.52 384.47 422.33 391.15" stroke-dasharray="2 9" transform="rotate(96.96, 400, 400)" opacity="0.07"></path></g></svg>