<?xml version="1.0" standalone="no"?>
<!DOCTYPE svg PUBLIC "-//W3C//DTD SVG 20010904//EN"
 "http://www.w3.org/TR/2001/REC-SVG-20010904/DTD/svg10.dtd">
<svg version="1.0" xmlns="http://www.w3.org/2000/svg"
 width="700.000000pt" height="700.000000pt" viewBox="0 0 700.000000 700.000000"
 preserveAspectRatio="xMidYMid meet">
<metadata>
Created by potrace 1.14, written by Peter Selinger 2001-2017
</metadata>
<g transform="translate(0.000000,700.000000) scale(0.100000,-0.100000)"
fill="#000000" stroke="none">
<path d="M3248 5899 l-3 -1101 -94 233 c-178 444 -243 604 -256 634 -7 17 -22
53 -33 80 -36 93 -144 360 -157 390 -14 32 -146 358 -175 435 -10 25 -34 86
-55 135 -20 50 -41 100 -46 112 l-8 22 -63 -25 c-35 -14 -76 -32 -93 -39 -16
-7 -90 -37 -163 -66 -73 -28 -135 -55 -137 -59 -3 -6 278 -716 314 -795 6 -11
55 -132 110 -270 55 -137 168 -419 252 -625 83 -206 153 -382 156 -390 3 -8
-354 344 -794 783 l-800 799 -177 -178 -178 -177 764 -765 c419 -420 756 -762
748 -759 -12 4 -790 343 -935 407 -22 10 -94 41 -160 70 -66 28 -140 61 -165
72 -25 11 -58 26 -75 33 -16 7 -56 24 -88 39 -32 14 -59 26 -62 26 -2 0 -32
13 -67 29 -35 16 -112 50 -173 76 -60 26 -139 61 -174 77 -35 16 -65 27 -67
25 -2 -2 -31 -66 -64 -143 -34 -76 -67 -152 -75 -169 -7 -16 -24 -55 -38 -86
l-25 -57 282 -122 c154 -68 304 -133 331 -145 28 -13 97 -43 155 -68 58 -25
197 -86 310 -135 113 -49 297 -130 410 -179 113 -49 297 -130 409 -179 l203
-89 -1146 -3 -1146 -2 0 -250 0 -250 1147 -2 1146 -3 -274 -119 c-151 -66
-301 -132 -334 -147 -126 -57 -154 -69 -159 -69 -3 0 -34 -13 -68 -29 -35 -16
-169 -74 -298 -131 -129 -56 -253 -110 -275 -120 -22 -10 -89 -39 -150 -65
-60 -26 -137 -60 -170 -75 -33 -15 -130 -57 -216 -95 l-157 -68 45 -101 c24
-55 52 -119 62 -141 10 -22 35 -79 56 -127 21 -49 39 -88 40 -88 2 0 97 42
180 80 11 5 74 32 140 60 189 82 276 120 333 146 29 13 55 24 57 24 2 0 28 11
57 24 65 29 141 63 188 83 19 9 49 22 67 29 17 8 242 106 500 219 l467 204
-768 -768 -768 -768 178 -177 177 -178 800 799 c440 439 797 791 795 783 -8
-21 -127 -319 -143 -355 -13 -30 -170 -419 -409 -1015 -70 -173 -131 -324
-136 -335 -43 -91 -148 -371 -142 -376 4 -4 107 -48 230 -98 219 -88 223 -90
231 -68 5 12 34 83 64 157 30 74 130 322 222 550 92 228 173 429 180 445 7 17
89 218 182 449 l168 418 3 -1101 2 -1101 250 0 250 0 2 1101 3 1101 104 -258
c58 -143 139 -344 181 -449 43 -104 130 -320 194 -480 64 -159 121 -299 126
-310 16 -35 142 -348 157 -390 8 -22 20 -54 28 -70 7 -17 18 -42 24 -57 l10
-27 230 92 c217 87 229 93 224 115 -3 13 -28 76 -55 140 -27 64 -51 124 -53
132 -3 8 -95 238 -205 510 -111 272 -246 608 -302 745 -55 138 -106 264 -113
280 -7 17 -36 86 -64 155 l-51 125 804 -804 803 -803 178 177 177 178 -769
770 c-422 423 -759 765 -748 759 11 -5 72 -32 135 -60 175 -76 499 -218 555
-242 28 -12 64 -28 80 -35 35 -15 307 -134 475 -207 63 -28 143 -63 178 -79
34 -16 64 -29 67 -29 3 0 44 -18 92 -39 133 -59 367 -162 379 -168 6 -2 27 32
47 79 20 46 65 149 100 229 l65 147 -282 123 c-154 67 -303 132 -331 145 -27
12 -214 94 -415 181 -201 88 -524 229 -719 314 l-353 154 1146 3 1146 2 0 250
0 250 -1147 0 c-1130 1 -1147 1 -1108 19 22 11 94 43 160 71 66 29 143 63 172
76 29 13 117 51 195 85 79 34 176 77 216 95 41 19 75 34 78 34 3 0 76 31 219
95 17 7 73 32 125 55 52 23 113 49 135 59 46 21 92 41 481 210 l281 123 -79
181 c-43 100 -89 203 -101 229 l-22 47 -65 -28 c-36 -15 -85 -37 -110 -49 -44
-20 -282 -123 -430 -187 -142 -62 -565 -246 -595 -260 -16 -7 -84 -37 -150
-65 -66 -29 -142 -63 -170 -75 -27 -13 -99 -44 -160 -70 -60 -26 -123 -53
-140 -60 -57 -25 -150 -67 -160 -72 -5 -3 336 341 759 764 l768 770 -177 178
-178 177 -800 -799 c-440 -439 -797 -791 -795 -783 3 8 44 110 91 225 109 270
298 737 377 935 34 85 68 169 75 185 8 17 46 111 85 210 40 99 78 194 85 210
53 122 124 310 117 316 -8 8 -280 121 -351 146 -25 9 -56 22 -70 29 -29 16
-31 14 -55 -46 -10 -25 -22 -54 -27 -65 -20 -49 -68 -168 -234 -580 -97 -242
-183 -453 -190 -470 -7 -16 -60 -147 -118 -290 -57 -143 -133 -331 -168 -419
l-64 -158 -3 1101 -2 1101 -250 0 -250 0 -2 -1101z"/>
</g>
</svg>
